<svg width="36" height="36" viewBox="0 0 36 36" fill="none" xmlns="http://www.w3.org/2000/svg">
<rect x="3.75" y="3.75" width="28.5" height="28.5" rx="1.25" stroke="#004FB6" stroke-width="1.5"/>
<path fill-rule="evenodd" clip-rule="evenodd" d="M13.5 15C11.8431 15 10.5 13.6569 10.5 12C10.5 10.3431 11.8431 9 13.5 9C15.1569 9 16.5 10.3431 16.5 12C16.5 13.6569 15.1569 15 13.5 15Z" stroke="#004FB6" stroke-width="1.5" stroke-linecap="round" stroke-linejoin="round"/>
<path d="M4.00488 28.4251L11.0824 23.4601C12.2165 22.6651 13.853 22.7551 14.8723 23.6701L15.3461 24.1051C16.4658 25.1101 18.2747 25.1101 19.3944 24.1051L25.3665 18.7501C26.4863 17.7451 28.2951 17.7451 29.4149 18.7501L31.7549 20.8501" stroke="#004FB6" stroke-width="1.5" stroke-linecap="round" stroke-linejoin="round"/>
</svg>
