<svg width="120" height="120" viewBox="0 0 120 120" fill="none" xmlns="http://www.w3.org/2000/svg">
<mask id="path-1-inside-1_2718_35" fill="white">
<path fill-rule="evenodd" clip-rule="evenodd" d="M40.2218 71.9454C39.601 70.1658 38.0035 68.8359 36.1186 68.8359H2C0.895431 68.8359 0 69.7314 0 70.8359V112C0 113.104 0.895429 114 2 114H118C119.105 114 120 113.104 120 112V70.8359C120 69.7314 119.105 68.8359 118 68.8359H83.8779C81.9931 68.8359 80.3955 70.1658 79.7747 71.9454C76.6672 80.8534 68.9841 87.157 59.9983 87.157C51.0125 87.157 43.3293 80.8534 40.2218 71.9454Z"/>
</mask>
<path d="M79.7747 71.9454L82.1352 72.7689L79.7747 71.9454ZM40.2218 71.9454L42.5823 71.122L40.2218 71.9454ZM2 71.3359H36.1186V66.3359H2V71.3359ZM2.5 70.8359C2.5 71.1121 2.27614 71.3359 2 71.3359V66.3359C-0.485278 66.3359 -2.5 68.3507 -2.5 70.8359H2.5ZM2.5 112V70.8359H-2.5V112H2.5ZM2 111.5C2.27614 111.5 2.5 111.724 2.5 112H-2.5C-2.5 114.485 -0.485287 116.5 2 116.5V111.5ZM118 111.5H2V116.5H118V111.5ZM117.5 112C117.5 111.724 117.724 111.5 118 111.5V116.5C120.485 116.5 122.5 114.485 122.5 112H117.5ZM117.5 70.8359V112H122.5V70.8359H117.5ZM118 71.3359C117.724 71.3359 117.5 71.1121 117.5 70.8359H122.5C122.5 68.3507 120.485 66.3359 118 66.3359V71.3359ZM83.8779 71.3359H118V66.3359H83.8779V71.3359ZM77.4142 71.122C74.5915 79.2135 67.7349 84.657 59.9983 84.657V89.657C70.2332 89.657 78.7429 82.4933 82.1352 72.7689L77.4142 71.122ZM59.9983 84.657C52.2616 84.657 45.405 79.2135 42.5823 71.122L37.8613 72.7689C41.2537 82.4933 49.7633 89.657 59.9983 89.657V84.657ZM83.8779 66.3359C80.7553 66.3359 78.3241 68.5137 77.4142 71.122L82.1352 72.7689C82.4669 71.8179 83.2309 71.3359 83.8779 71.3359V66.3359ZM36.1186 71.3359C36.7657 71.3359 37.5296 71.8179 37.8613 72.7689L42.5823 71.122C41.6724 68.5137 39.2413 66.3359 36.1186 66.3359V71.3359Z" fill="#CCCCCC" mask="url(#path-1-inside-1_2718_35)"/>
<path d="M1.5 70.2502L26.0816 47.5315C26.4512 47.1899 26.9359 47.0002 27.4391 47.0002H92.8697C93.3773 47.0002 93.8659 47.1932 94.2364 47.5401L118.5 70.2502" stroke="#CCCCCC" stroke-width="2.5"/>
<path d="M60 6.00061V21.7336" stroke="#CCCCCC" stroke-width="2.5" stroke-linecap="round"/>
<path d="M23.1826 13.3752L30.3667 27.0004" stroke="#CCCCCC" stroke-width="2.5" stroke-linecap="round"/>
<path d="M96.8176 13.3752L89.6336 27.0004" stroke="#CCCCCC" stroke-width="2.5" stroke-linecap="round"/>
</svg>
