<svg width="80" height="49" viewBox="0 0 80 49" fill="none" xmlns="http://www.w3.org/2000/svg">
<g clip-path="url(#clip0_2717_91)">
<path d="M53.2742 7.44698V11.54H50.4561V17.8784C50.4561 19.5373 52.6412 19.6096 53.2742 19.6096V20.5656C55.9068 19.3525 57.9428 16.3681 58.0235 13.3234C58.0235 13.1708 58.0275 13.0142 58.0235 12.8615C58.0073 12.4438 57.9589 12.0341 57.8703 11.6404C57.2373 8.78053 54.6288 6.55125 50.4561 5.23376V7.451H53.2742V7.44698Z" fill="#59C3E1"/>
<path d="M21.384 7.67992V22.4173C22.029 22.2847 22.6539 22.1241 23.2627 21.9473V6.48695H27.9596V9.57581C28.7821 7.26218 30.4229 6.27808 32.3743 6.25398V7.7723C33.3338 6.17766 35.6641 5.55507 37.9016 5.55507C40.3408 5.55507 42.8928 6.29816 43.6548 8.23423V7.45096H45.7674V4.1452C38.2201 2.655 26.105 0.610486 19.727 0.104379C14.2963 -0.325411 9.64785 0.578352 6.22095 2.5586H15.2801V7.00109H7.39013V10.8853H15.0422V14.9783H7.39013V21.1922C9.9341 22.1321 13.0183 22.6784 16.4533 22.7707V7.67992H21.384ZM16.4533 2.5586H21.384V6.48695H16.4533V2.5586Z" fill="#59C3E1"/>
<path d="M0.104844 11.2588C-0.0564215 12.3192 -0.0322316 13.3395 0.181446 14.2954C0.495914 15.7133 1.21758 17.0027 2.33435 18.1274C2.37466 18.1676 2.41901 18.2077 2.46336 18.2479V5.76392C1.23371 7.32642 0.423345 9.1701 0.104844 11.2588Z" fill="#59C3E1"/>
<path d="M45.7633 11.54H39.1877V10.6523C39.1877 9.92524 38.6474 9.52759 37.8975 9.52759C37.1477 9.52759 36.6074 9.83286 36.6074 10.5559V10.6724C36.6074 11.4918 37.2646 11.8412 39.2602 12.4718C44.0257 13.8536 44.0498 15.0466 44.0498 17.6896V19.6537C44.0498 20.1277 43.9611 20.5455 43.812 20.919C44.6546 21.0917 45.5133 21.2283 46.3922 21.3127C46.0012 20.678 45.7673 19.8706 45.7673 18.8343V11.5359L45.7633 11.54Z" fill="#59C3E1"/>
<path d="M36.5348 16.8742V18.4649C36.5348 18.6818 36.5953 18.8665 36.692 19.0232C37.2968 19.1798 37.9015 19.3445 38.4982 19.5172C38.9377 19.3606 39.236 19.0071 39.236 18.4649V17.6937C39.236 16.569 38.5305 16.336 35.1519 15.0989C32.3741 14.1107 31.9548 12.6045 31.9145 10.9897C30.7091 11.2267 27.9595 12.4117 27.9595 17.296V20.188C29.2859 19.6418 30.5317 19.1477 31.7492 18.8505V16.8742H36.5388H36.5348Z" fill="#59C3E1"/>
<path d="M2.46326 5.76394V18.2479C3.70501 19.4569 5.37814 20.4491 7.39397 21.1922V14.9783H15.046V10.8853H7.39397V7.00109H15.2839V2.55859H6.22076C4.71695 3.42621 3.45505 4.50269 2.45923 5.76394H2.46326Z" fill="white"/>
<path d="M16.4531 22.7708C16.9651 22.7828 17.4812 22.7908 18.0093 22.7868C19.1987 22.7708 20.3195 22.6342 21.3838 22.4213V7.67993H16.4531V22.7667V22.7708Z" fill="white"/>
<path d="M21.3838 2.55859H16.4531V6.48695H21.3838V2.55859Z" fill="white"/>
<path d="M36.5347 16.8741H31.7451V18.8504C33.003 18.5451 34.2326 18.4487 35.4946 18.7299C35.8937 18.8182 36.2969 18.9187 36.692 19.0231C36.5952 18.8664 36.5347 18.6817 36.5347 18.4648V16.8741Z" fill="white"/>
<path d="M53.2742 11.54V7.44699H50.456V5.22976C49.7223 4.99679 48.9442 4.79193 48.1137 4.6152C47.396 4.46658 46.6058 4.30591 45.7632 4.13721V7.44297H43.6506V8.22623C42.8886 6.29017 40.3406 5.54708 37.8975 5.54708C35.6599 5.54708 33.3336 6.17369 32.3701 7.76431V6.24599C30.4228 6.27009 28.7779 7.25017 27.9554 9.56782V6.47896H23.2585V21.9353C24.8107 21.4734 26.2379 20.8869 27.5764 20.3326C27.7014 20.2804 27.8304 20.2282 27.9554 20.176V17.2839C27.9554 12.3956 30.709 11.2147 31.9105 10.9777C31.9508 12.5924 32.366 14.0987 35.1479 15.0868C38.5304 16.328 39.2319 16.5609 39.2319 17.6816V18.4528C39.2319 18.9951 38.9336 19.3485 38.4941 19.5052C38.7885 19.5895 39.0787 19.6739 39.369 19.7542C40.8164 20.172 42.2879 20.5977 43.8038 20.911C43.953 20.5335 44.0417 20.1157 44.0417 19.6458V17.6816C44.0417 15.0386 44.0175 13.8456 39.2521 12.4639C37.2564 11.8332 36.5993 11.4798 36.5993 10.6644V10.5479C36.5993 9.82489 37.1395 9.51962 37.8894 9.51962C38.6393 9.51962 39.1795 9.91727 39.1795 10.6443V11.532H45.7551V18.8304C45.7551 19.8667 45.989 20.6741 46.38 21.3087C48.1499 21.4774 50.0045 21.4292 51.9921 20.9914C52.4275 20.895 52.8549 20.7464 53.2661 20.5536V19.5976C52.6331 19.5976 50.448 19.5253 50.448 17.8664V11.528H53.2661L53.2742 11.54Z" fill="white"/>
<path d="M72.4971 30.9649C72.4971 30.1616 71.8278 29.7278 71.0255 29.7278C70.2232 29.7278 69.5298 30.1616 69.5298 30.9649V32.2262H72.4971V30.9649Z" fill="#0F345B"/>
<path d="M34.9987 26.667C33.2288 26.9964 31.5879 27.4462 30.1204 28.0126L32.3821 39.5687L34.9987 26.671V26.667Z" fill="#0F345B"/>
<path d="M22.2144 35.9899C22.0773 36.9579 22.1337 37.9782 22.3797 39.0225C22.6296 40.0869 23.0086 41.0751 23.5005 41.9828V32.7404C22.811 33.7526 22.3756 34.8411 22.2144 35.9899Z" fill="#0F345B"/>
<path d="M64.9297 39.0787V30.7802L61.9463 44.2844C63.9258 43.7702 65.8126 43.2641 67.5059 42.7982C65.9981 42.1153 64.9297 40.9143 64.9297 39.0827V39.0787Z" fill="#0F345B"/>
<path d="M79.9918 32.8769C79.9878 32.7202 79.9717 32.5676 79.9555 32.415C79.5806 28.9124 76.6133 25.6869 73.3396 25.2331C68.5258 24.5623 64.6232 26.0324 60.8495 27.4543C59.761 27.864 58.6442 28.2817 57.5154 28.6473L59.1804 38.669L60.6762 28.5589H65.2844C66.1673 26.659 68.554 25.8315 71.0214 25.8315C74.1056 25.8315 77.1173 27.137 77.1173 30.254V35.8934H69.5257V38.2995C69.5257 39.1028 70.2151 39.4924 71.0214 39.4924C71.8277 39.4924 72.493 39.1028 72.493 38.2995V37.3836H77.21V38.669C78.7622 37.3555 79.6935 35.8131 79.9313 34.11C79.9878 33.7083 80.0039 33.2946 79.9878 32.8809L79.9918 32.8769Z" fill="#0F345B"/>
<path d="M48.1056 33.865C47.392 33.865 46.634 34.2305 46.634 34.9415V42.4126C46.634 43.1235 47.392 43.4891 48.1056 43.4891C48.8192 43.4891 49.5771 43.1235 49.5771 42.4126V34.9415C49.5771 34.2305 48.8192 33.865 48.1056 33.865Z" fill="#0F345B"/>
<path d="M54.2257 34.7969V43.469C54.2257 45.0717 53.1372 46.1642 51.6777 46.8029C53.6936 46.3409 55.8021 45.8348 57.8865 45.3167H56.6528L54.2257 34.7969Z" fill="#0F345B"/>
<path d="M42.0338 43.469V33.8851C42.0338 31.0895 45.2793 29.8523 48.1095 29.8523C50.1536 29.8523 52.4677 30.511 53.5724 31.949L52.8669 28.8843C51.6534 28.6473 50.3955 28.2416 49.0529 27.8078C46.255 26.904 43.078 25.8757 39.3205 26.1288C38.7077 26.169 38.107 26.2292 37.5144 26.2935H41.1509V46.8993H36.5508V35.6685L34.1802 46.8993H30.6122L28.1045 35.6685V46.6543C31.7814 48.7992 36.8975 49.5463 42.8281 48.6024C44.4367 48.3453 46.4122 47.9597 48.5772 47.4937C48.42 47.5018 48.2627 47.5058 48.1095 47.5058C45.2793 47.5058 42.0338 46.2687 42.0338 43.473V43.469Z" fill="#0F345B"/>
<path d="M34.9986 26.667L32.3821 39.5647L30.1203 28.0086C27.5199 29.0087 25.4396 30.3624 24.0608 31.9972C23.8551 32.2382 23.6737 32.4872 23.5044 32.7363V41.9787C24.5486 43.9148 26.1169 45.4853 28.1045 46.6462V35.6604L30.6122 46.8912H34.1802L36.5508 35.6604V46.8912H41.1509V26.2854H37.5144C36.6516 26.3818 35.813 26.5063 34.9986 26.659V26.667Z" fill="white"/>
<path d="M72.497 37.3836V38.2995C72.497 39.1028 71.8277 39.4924 71.0254 39.4924C70.2231 39.4924 69.5297 39.1028 69.5297 38.2995V35.8934H77.1213V30.254C77.1213 27.137 74.1056 25.8315 71.0254 25.8315C68.558 25.8315 66.1713 26.659 65.2884 28.5589H60.6802L59.1845 38.669L57.5194 28.6473C57.3702 28.6955 57.217 28.7477 57.0678 28.7959C55.685 29.2217 54.3062 29.1735 52.8628 28.8883L53.5684 31.953C52.4637 30.515 50.1495 29.8563 48.1055 29.8563C45.2753 29.8563 42.0298 31.0935 42.0298 33.8891V43.473C42.0298 46.2686 45.2753 47.5058 48.1055 47.5058C48.2587 47.5058 48.4159 47.5018 48.5732 47.4937C49.573 47.2808 50.6091 47.0479 51.6735 46.8029C53.1329 46.1642 54.2215 45.0757 54.2215 43.469V34.7969L56.6485 45.3167H57.8822C59.253 44.9752 60.6157 44.6298 61.9381 44.2844L64.9215 30.7801V39.0787C64.9215 40.9103 65.9899 42.1113 67.4977 42.7942C68.6951 42.4648 69.7957 42.1515 70.7593 41.8663C73.4807 41.067 75.6537 39.9784 77.2099 38.665V37.3796H72.4929L72.497 37.3836ZM69.5297 30.9649C69.5297 30.1616 70.2191 29.7278 71.0254 29.7278C71.8317 29.7278 72.497 30.1616 72.497 30.9649V32.2262H69.5297V30.9649ZM49.5811 42.4126C49.5811 43.1235 48.8231 43.4891 48.1095 43.4891C47.3959 43.4891 46.638 43.1235 46.638 42.4126V34.9415C46.638 34.2305 47.3959 33.865 48.1095 33.865C48.8231 33.865 49.5811 34.2305 49.5811 34.9415V42.4126Z" fill="white"/>
</g>
<defs>
<clipPath id="clip0_2717_91">
<rect width="80" height="49" fill="white"/>
</clipPath>
</defs>
</svg>
