<svg width="142" height="19" viewBox="0 0 142 19" fill="none" xmlns="http://www.w3.org/2000/svg">
<g clip-path="url(#clip0_2717_58)">
<path d="M54.5337 2.68086V7.87686H48.4822V2.68086H45.1459V16.3191H48.4822V10.8404H54.5337V16.3191H57.8701V2.68086H57.7098H54.5337Z" fill="#002D74"/>
<path d="M70.1134 2.68086L66.6167 8.08158L63.1301 2.68086H59.1926L64.9536 11.6008V16.3191H68.2899V11.6008L74.0509 2.68086H73.7403H70.1134Z" fill="#002D74"/>
<path d="M84.7813 2.68086V12.6732C84.7813 13.0534 84.4907 13.3556 84.0699 13.3556H78.7198V2.68086H75.3834V16.3191H85.2422C86.1238 16.3191 86.8252 16.0657 87.3362 15.5685C87.8471 15.0713 88.1076 14.3792 88.1076 13.531V2.68086H84.7713H84.7813Z" fill="#002D74"/>
<path d="M101.072 2.68086H91.2134V16.3191H94.5498V5.63469H99.9C100.331 5.63469 100.611 5.96614 100.611 6.31709V16.3191H103.948V5.46896C103.948 4.61108 103.687 3.92868 103.176 3.4315C102.655 2.93433 101.954 2.68086 101.082 2.68086H101.072Z" fill="#002D74"/>
<path d="M116.882 2.68086H107.024V16.3191H116.882C117.754 16.3191 118.455 16.0657 118.976 15.5685C119.487 15.0713 119.748 14.3792 119.748 13.531V5.46896C119.748 4.61108 119.487 3.92868 118.976 3.4315C118.465 2.93433 117.754 2.68086 116.882 2.68086ZM116.421 6.34633V12.6634C116.421 13.0339 116.141 13.3653 115.71 13.3653H110.36V5.63469H115.69C116.131 5.63469 116.421 5.93689 116.421 6.33658V6.34633Z" fill="#002D74"/>
<path d="M125.559 2.68086C124.687 2.68086 123.976 2.93433 123.465 3.4315C122.954 3.92868 122.693 4.61108 122.693 5.46896V16.3191H126.02V12.098H132.081V16.3191H135.417V2.68086H125.559ZM132.091 5.63469V9.14418H126.03V6.32683C126.03 5.99538 126.3 5.63469 126.741 5.63469H132.091Z" fill="#002D74"/>
<path d="M142 2.68086H138.664V16.3191H142V2.68086Z" fill="#002D74"/>
<path d="M19.0663 19C29.5963 19 38.1325 14.7496 38.1325 9.49513C38.1325 4.24064 29.6063 0 19.0663 0C8.52621 0 0 4.25038 0 9.49513C0 14.7399 8.53623 19 19.0663 19ZM22.6631 14.3402C22.3425 15.0616 21.8015 16.5921 20.5391 17.1965C20.1583 17.3817 19.6874 17.4695 19.2666 17.4792C19.1765 17.4792 19.1063 17.4792 19.0763 17.4792C15.5596 17.4792 12.2834 17.0015 9.53814 16.1924C9.5181 16.1924 9.44796 16.1632 9.42793 16.1534C9.17745 16.0754 9.0472 15.9584 9.0472 15.822C9.0472 15.6952 9.10732 15.6075 9.20751 15.5198C9.24758 15.4808 9.3077 15.432 9.37783 15.3735C10.009 14.8569 11.9227 13.5115 15.5095 12.176C16.7719 11.7081 18.3449 11.1231 19.998 10.7819C20.9699 10.587 24.5567 10.0508 22.6631 14.3402ZM32.2914 4.76706C32.3615 4.65008 32.4517 4.55259 32.612 4.54284C32.7022 4.54284 32.8224 4.56234 33.0128 4.66957C35.257 6.01488 36.5796 7.68189 36.5796 9.49513C36.5796 12.7707 32.2513 15.588 26.0596 16.8163C25.6588 16.8943 25.3983 16.8846 25.3081 16.7968C25.248 16.7383 25.228 16.6311 25.3081 16.5044C25.3482 16.4361 25.3883 16.3776 25.4784 16.2801C28.8549 12.41 31.4197 6.70703 32.1511 5.05952C32.2113 4.94253 32.2613 4.8353 32.3014 4.75731L32.2914 4.76706ZM15.5395 4.64033C15.8602 3.92868 16.4012 2.3884 17.6636 1.78399C18.0443 1.59877 18.5152 1.51103 18.936 1.50128C19.0262 1.50128 19.0963 1.50128 19.1264 1.50128C22.6431 1.50128 25.9193 1.97896 28.6645 2.7881C28.6845 2.7881 28.7447 2.81734 28.7647 2.82709C29.0152 2.90508 29.1454 3.02206 29.1454 3.16829C29.1454 3.28527 29.0753 3.38276 28.9851 3.4705C28.945 3.50949 28.8849 3.55824 28.8148 3.61673C28.1836 4.1334 26.27 5.47871 22.6831 6.81426C21.4207 7.2822 19.8477 7.86711 18.1946 8.20831C17.2227 8.41303 13.6359 8.93946 15.5295 4.65008L15.5395 4.64033ZM12.083 2.17394C12.4837 2.09595 12.7442 2.09595 12.8344 2.19343C12.8945 2.25192 12.9045 2.35916 12.8344 2.48589C12.7943 2.55413 12.7442 2.61262 12.6641 2.71011C9.28766 6.5803 6.72278 12.2832 5.99139 13.9307C5.9413 14.0477 5.88118 14.155 5.84111 14.2329C5.77097 14.3499 5.6808 14.4474 5.5205 14.4572C5.43033 14.4572 5.3101 14.4377 5.11974 14.3304C2.88549 12.9851 1.55295 11.3181 1.55295 9.49513C1.55295 6.2196 5.88118 3.40226 12.073 2.17394H12.083Z" fill="#002D74"/>
</g>
<defs>
<clipPath id="clip0_2717_58">
<rect width="142" height="19" fill="white"/>
</clipPath>
</defs>
</svg>
