<svg width="30" height="30" viewBox="0 0 30 30" fill="none" xmlns="http://www.w3.org/2000/svg">
<path d="M17.4428 10.2461C17.4428 11.5951 16.3492 12.6888 15.0001 12.6888C13.651 12.6888 12.5574 11.5951 12.5574 10.2461C12.5574 8.89699 13.651 7.80334 15.0001 7.80334C16.3492 7.80334 17.4428 8.89699 17.4428 10.2461Z" stroke="#1B1B1B" stroke-width="2"/>
<path d="M20.4916 18.713C20.4916 19.5692 20.0023 20.4427 19.0129 21.1423C18.026 21.8401 16.6104 22.3033 15 22.3033C13.3895 22.3033 11.9739 21.8401 10.987 21.1423C9.99762 20.4427 9.5083 19.5692 9.5083 18.713C9.5083 17.8567 9.99762 16.9832 10.987 16.2836C11.9739 15.5858 13.3895 15.1227 15 15.1227C16.6104 15.1227 18.026 15.5858 19.0129 16.2836C20.0023 16.9832 20.4916 17.8567 20.4916 18.713Z" stroke="#1B1B1B" stroke-width="2"/>
<circle cx="15" cy="15" r="14" stroke="#1B1B1B" stroke-width="2"/>
</svg>
